<?xml version="1.0" standalone="no"?>
<!DOCTYPE svg PUBLIC "-//W3C//DTD SVG 20010904//EN"
 "http://www.w3.org/TR/2001/REC-SVG-20010904/DTD/svg10.dtd">
<svg version="1.0" xmlns="http://www.w3.org/2000/svg"
 width="500.000000pt" height="500.000000pt" viewBox="0 0 500.000000 500.000000"
 preserveAspectRatio="xMidYMid meet">

<g transform="translate(0.000000,500.000000) scale(0.100000,-0.100000)"
fill="#000000" stroke="none">
<path d="M770 3091 c0 -693 3 -1262 8 -1264 6 -4 100 77 362 312 41 37 93 83
115 102 22 19 47 41 55 49 8 9 47 42 85 75 39 33 77 67 85 75 8 8 55 51 105
95 49 44 100 89 112 100 23 20 23 22 29 395 3 206 8 381 10 389 6 20 749 9
845 -13 460 -105 743 -495 716 -984 -17 -314 -167 -557 -443 -719 -89 -53
-179 -83 -324 -108 -110 -19 -715 -22 -726 -3 -4 7 71 88 197 212 311 306 479
466 489 466 5 0 15 -8 22 -19 7 -10 47 -55 89 -99 l77 -81 10 107 c6 59 16
168 22 242 6 74 18 211 27 303 10 100 12 171 7 177 -5 5 -49 5 -104 -1 -125
-12 -359 -28 -547 -37 -83 -4 -155 -11 -160 -15 -4 -5 15 -29 42 -55 129 -119
155 -144 155 -153 0 -5 -13 -22 -28 -37 -68 -65 -192 -180 -233 -216 -24 -21
-78 -71 -119 -110 -117 -110 -188 -175 -275 -251 -44 -39 -82 -72 -85 -75 -3
-3 -45 -41 -95 -85 -49 -44 -95 -84 -101 -90 -6 -5 -46 -41 -89 -80 -42 -38
-90 -81 -105 -95 -15 -14 -49 -45 -76 -69 -27 -23 -72 -65 -101 -93 l-52 -49
5 -352 c3 -194 5 -358 4 -364 0 -20 1691 -18 1855 2 177 21 272 40 370 73 472
158 832 466 1060 904 38 74 92 204 106 256 5 17 14 49 20 70 39 139 59 278 66
473 11 333 -44 604 -184 890 -97 201 -191 331 -357 494 -199 196 -474 360
-736 436 -263 77 -293 79 -1316 79 l-894 0 0 -1259z"/>
</g>
</svg>
