<?xml version="1.0" standalone="no"?>
<!DOCTYPE svg PUBLIC "-//W3C//DTD SVG 20010904//EN"
 "http://www.w3.org/TR/2001/REC-SVG-20010904/DTD/svg10.dtd">
<svg version="1.0" xmlns="http://www.w3.org/2000/svg"
 width="1024.000000pt" height="1024.000000pt" viewBox="0 0 1024.000000 1024.000000"
 preserveAspectRatio="xMidYMid meet">

<g transform="translate(0.000000,1024.000000) scale(0.100000,-0.100000)"
fill="#000000" stroke="none">
<path d="M1390 5313 c1 -622 3 -785 13 -772 7 9 69 83 139 165 225 266 422
499 483 572 32 40 62 72 65 72 4 0 89 -86 190 -191 l185 -191 35 39 c59 65
403 463 417 483 12 17 7 24 -59 75 -40 31 -74 60 -76 64 -2 7 518 164 524 158
5 -5 -34 -458 -44 -510 l-7 -37 -79 66 c-65 55 -80 64 -91 52 -7 -7 -129 -146
-270 -308 -278 -318 -333 -380 -340 -380 -2 0 -86 83 -186 185 -100 102 -185
185 -189 185 -4 0 -43 -44 -88 -97 -44 -54 -150 -181 -235 -283 -141 -167
-154 -186 -134 -191 12 -4 65 -17 117 -29 205 -48 456 -150 634 -258 37 -23
70 -42 73 -42 2 0 41 23 87 50 245 148 556 253 873 297 l123 17 0 798 c0 753
-1 798 -17 798 -38 -1 -223 -30 -318 -50 -228 -50 -514 -165 -677 -273 l-68
-45 -67 45 c-166 110 -448 223 -678 273 -95 20 -280 49 -317 50 -17 0 -18 -44
-18 -787z"/>
<path d="M6382 5464 c-57 -39 6 -127 64 -90 32 21 33 69 2 90 -28 20 -38 20
-66 0z"/>
<path d="M7542 5216 c3 -244 4 -256 24 -276 23 -23 91 -36 113 -22 19 13 5 69
-20 77 -23 8 -21 -10 -23 255 l-1 215 -48 3 -48 3 3 -255z"/>
<path d="M8576 5461 c-4 -6 -8 -370 -6 -518 0 -19 5 -23 35 -23 24 0 35 5 35
15 0 20 5 19 40 -6 22 -17 38 -21 70 -16 22 3 48 11 57 19 67 55 72 277 8 348
-25 28 -76 35 -113 16 -43 -22 -45 -21 -37 25 4 22 4 65 0 95 l-6 54 -39 0
c-21 0 -41 -4 -44 -9z m174 -260 c16 -31 13 -163 -6 -189 -19 -27 -60 -29 -74
-3 -5 11 -10 54 -10 96 0 92 10 115 50 115 19 0 33 -7 40 -19z"/>
<path d="M5494 5444 c-65 -32 -82 -115 -40 -198 l24 -46 -27 -21 c-63 -50 -84
-122 -53 -192 33 -75 136 -101 223 -56 l41 20 20 -21 c11 -12 27 -19 35 -16 8
3 30 6 50 6 l35 0 -36 49 -36 49 19 43 c10 24 22 63 26 87 l7 42 -41 0 c-36 0
-41 -3 -47 -27 -9 -43 -23 -75 -32 -69 -4 2 -22 24 -39 49 l-32 44 30 29 c43
40 59 76 59 126 0 52 -21 85 -66 104 -43 18 -81 17 -120 -2z m88 -71 c25 -23
22 -56 -9 -93 l-26 -32 -13 24 c-20 35 -18 95 4 107 23 14 23 14 44 -6z m-12
-302 c41 -51 42 -55 25 -68 -11 -7 -33 -13 -51 -13 -38 0 -64 29 -64 70 0 27
27 73 40 68 4 -2 27 -27 50 -57z"/>
<path d="M3920 5185 l0 -265 98 0 c118 0 163 20 202 90 23 42 25 55 25 175 0
120 -2 133 -25 175 -38 68 -89 90 -207 90 l-93 0 0 -265z m179 169 c13 -9 29
-32 37 -50 14 -34 19 -166 8 -223 -9 -45 -49 -81 -90 -81 l-34 0 0 185 0 185
28 0 c15 0 38 -7 51 -16z"/>
<path d="M5961 5428 c0 -13 28 -131 62 -263 l62 -240 52 -3 c50 -3 51 -2 62
30 20 66 121 465 121 482 0 14 -8 17 -47 14 l-48 -3 -32 -145 c-18 -80 -35
-169 -39 -198 -3 -29 -9 -51 -11 -48 -3 2 -22 88 -44 191 -21 103 -41 191 -44
196 -4 5 -26 9 -51 9 -39 0 -44 -2 -43 -22z"/>
<path d="M7908 5440 c-1 -5 -2 -125 0 -265 l3 -255 134 0 135 0 0 40 0 39 -87
3 -88 3 -3 223 -2 222 -44 0 c-25 0 -46 -4 -48 -10z"/>
<path d="M4677 5393 c-4 -3 -7 -26 -7 -50 0 -39 -2 -43 -26 -43 -23 0 -25 -3
-22 -37 2 -30 8 -39 24 -41 21 -3 22 -9 26 -125 4 -130 12 -157 55 -176 29
-13 93 -14 112 -2 10 6 12 19 7 44 -5 29 -10 34 -26 30 -41 -11 -50 12 -50
123 l0 104 35 0 c34 0 35 1 35 40 0 39 -1 40 -35 40 l-35 0 0 50 0 50 -43 0
c-24 0 -47 -3 -50 -7z"/>
<path d="M4380 5298 c-62 -18 -74 -39 -42 -77 16 -21 18 -21 51 -5 48 24 85
10 89 -34 3 -31 2 -32 -33 -32 -78 0 -133 -43 -142 -109 -14 -102 77 -165 163
-112 29 18 31 18 54 -1 13 -10 32 -18 44 -16 24 4 40 54 27 83 -6 11 -11 70
-13 130 -3 85 -8 116 -21 137 -30 44 -99 58 -177 36z m100 -253 c0 -39 -4 -47
-25 -57 -32 -14 -55 4 -55 43 0 34 23 59 56 59 22 0 24 -4 24 -45z"/>
<path d="M4946 5296 c-53 -20 -60 -29 -45 -57 18 -35 30 -39 62 -22 38 19 75
9 87 -23 13 -33 6 -44 -30 -44 -44 0 -107 -29 -126 -57 -9 -15 -17 -47 -17
-76 -1 -44 3 -53 31 -78 40 -36 96 -39 135 -8 l26 20 29 -21 c39 -29 66 -23
70 14 2 16 -1 39 -7 50 -6 12 -12 74 -13 138 -3 112 -4 119 -30 144 -33 33
-112 42 -172 20z m114 -246 c0 -32 -5 -43 -26 -57 -33 -21 -58 -8 -62 35 -4
34 26 62 65 62 20 0 23 -5 23 -40z"/>
<path d="M6593 5295 c-35 -15 -63 -60 -63 -100 0 -48 28 -84 90 -115 49 -25
60 -35 60 -55 0 -38 -36 -51 -86 -30 -38 16 -39 15 -57 -6 -10 -12 -16 -27
-14 -33 6 -19 70 -46 109 -46 152 0 200 152 71 226 -73 42 -84 53 -72 75 11
21 49 25 81 8 18 -10 25 -8 40 11 24 30 20 41 -23 62 -41 21 -92 22 -136 3z"/>
<path d="M7251 5297 c-47 -17 -58 -37 -37 -70 17 -25 18 -26 51 -10 43 20 83
11 91 -22 8 -33 -2 -45 -37 -45 -43 0 -92 -23 -117 -55 -38 -48 -22 -148 27
-175 32 -17 86 -12 114 11 l26 20 29 -21 c16 -12 38 -20 48 -18 16 3 19 11 16
48 -1 25 -4 95 -6 155 -3 127 -17 167 -67 184 -41 14 -94 13 -138 -2z m109
-252 c0 -34 -5 -47 -19 -55 -27 -14 -37 -13 -55 6 -34 33 -2 94 49 94 23 0 25
-4 25 -45z"/>
<path d="M8281 5297 c-48 -17 -59 -38 -38 -71 17 -25 19 -26 48 -10 41 21 71
15 87 -19 17 -34 9 -47 -28 -47 -48 0 -109 -30 -125 -61 -8 -15 -15 -49 -15
-74 0 -38 5 -52 29 -76 37 -36 94 -40 134 -8 l26 20 29 -21 c43 -32 66 -24 70
24 2 21 -1 43 -7 49 -7 7 -11 57 -11 124 0 110 -1 114 -28 144 -24 27 -37 33
-83 36 -30 1 -69 -3 -88 -10z m109 -246 c0 -30 -6 -44 -22 -55 -28 -20 -33
-20 -52 0 -34 33 -2 94 49 94 22 0 25 -4 25 -39z"/>
<path d="M6377 5293 c-4 -3 -7 -89 -7 -190 l0 -183 50 0 50 0 0 88 c0 48 -3
133 -7 190 l-6 102 -37 0 c-20 0 -40 -3 -43 -7z"/>
<path d="M6837 5294 c-11 -11 -8 -274 4 -316 18 -67 97 -88 163 -43 34 23 36
23 36 5 0 -17 7 -20 40 -20 l40 0 -2 188 -3 187 -45 0 -45 0 -3 -143 c-3 -142
-3 -143 -28 -154 -18 -9 -30 -9 -42 -1 -14 8 -18 34 -22 154 l-5 144 -40 3
c-23 2 -44 0 -48 -4z"/>
</g>
</svg>
